<?xml version="1.0" encoding="UTF-8" standalone="no"?>
<!DOCTYPE svg PUBLIC "-//W3C//DTD SVG 1.1//EN" "http://www.w3.org/Graphics/SVG/1.1/DTD/svg11.dtd">
<svg width="100%" height="100%" viewBox="0 0 16 16" version="1.1" xmlns="http://www.w3.org/2000/svg" xmlns:xlink="http://www.w3.org/1999/xlink" xml:space="preserve" xmlns:serif="http://www.serif.com/" style="fill-rule:evenodd;clip-rule:evenodd;stroke-linejoin:round;stroke-miterlimit:2;">
    <g transform="matrix(0.997259,0,0,0.997259,0.0732664,0.1271)">
        <g transform="matrix(2.41028,-5.74809e-17,-1.43014e-16,1.06457,-12.9944,-0.481358)">
            <rect x="7.709" y="0.361" width="0.622" height="15.077" style="fill:rgb(165,183,243);"/>
        </g>
        <g transform="matrix(2.42393,-5.79475e-17,-1.43824e-16,1.07321,-9.34131,-0.586518)">
            <rect x="7.709" y="0.361" width="0.622" height="15.077" style="fill:rgb(165,183,243);"/>
        </g>
        <g transform="matrix(0.900955,0,0,0.900955,0.668608,1.56977)">
            <path d="M15.142,14.543C15.166,14.591 15.187,14.641 15.203,14.693C15.224,14.763 15.238,14.835 15.242,14.908C15.25,15.03 15.234,15.152 15.195,15.267C15.158,15.379 15.099,15.483 15.023,15.572C14.951,15.657 14.864,15.728 14.767,15.782C14.676,15.833 14.577,15.868 14.475,15.886C14.39,15.902 14.304,15.905 14.218,15.897C14.148,15.89 14.08,15.876 14.014,15.853C13.856,15.8 13.715,15.704 13.607,15.578C13.576,15.542 13.548,15.503 13.522,15.462C13.504,15.433 13.488,15.402 13.473,15.371L13.372,15.166L11.192,11.742L11.255,8.842L15.142,14.543ZM5.718,10.177L5.587,9.911L2.642,11.888C2.258,12.143 1.739,12.076 1.434,11.731L-0.514,9.53C-0.794,9.231 -0.846,8.781 -0.641,8.425C-0.385,7.982 0.189,7.828 0.63,8.082C0.725,8.137 0.809,8.208 0.879,8.292L2.294,9.889L4.338,8.507C4.199,8.235 4.181,7.908 4.346,7.622L4.812,6.815L3.699,6.172L2.443,7.005C2.149,7.2 1.77,7.212 1.465,7.036C1.024,6.781 0.871,6.207 1.126,5.764C1.199,5.638 1.299,5.531 1.42,5.451L3.157,4.301C3.451,4.107 3.83,4.095 4.135,4.271L5.718,5.185L5.718,10.177ZM12.282,-0.232C12.318,-0.287 12.379,-0.319 12.444,-0.319C12.596,-0.315 12.751,-0.274 12.893,-0.192L15.89,1.446C16.336,1.703 16.487,2.27 16.229,2.718L14.831,5.14C14.572,5.587 14.005,5.74 13.56,5.483L12.755,5.018L12.293,5.817C12.379,5.87 12.455,5.937 12.519,6.015L13.851,7.519L15.357,6.181C15.665,5.899 16.126,5.857 16.479,6.078C16.9,6.342 17.038,6.901 16.788,7.333C16.736,7.423 16.669,7.504 16.591,7.573L14.387,9.53C14.088,9.796 13.65,9.841 13.305,9.642C13.218,9.592 13.14,9.528 13.074,9.453L12.115,8.37L11.3,7.435L11.143,1.487L12.282,-0.232ZM14.958,3.06L13.872,2.433L12.939,4.048L14.026,4.675L14.958,3.06Z" style="fill:rgb(165,183,243);fill-rule:nonzero;"/>
        </g>
    </g>
</svg>
