<?xml version="1.0" encoding="UTF-8" standalone="no"?>
<!DOCTYPE svg PUBLIC "-//W3C//DTD SVG 1.1//EN" "http://www.w3.org/Graphics/SVG/1.1/DTD/svg11.dtd">
<svg width="100%" height="100%" viewBox="0 0 16 16" version="1.1" xmlns="http://www.w3.org/2000/svg" xmlns:xlink="http://www.w3.org/1999/xlink" xml:space="preserve" xmlns:serif="http://www.serif.com/" style="fill-rule:evenodd;clip-rule:evenodd;stroke-linejoin:round;stroke-miterlimit:2;">
    <g transform="matrix(0.882921,0,0,0.890759,0.492437,1.35654)">
        <path d="M6.389,1.005L6.389,4.109C5.834,4.707 5.274,5.431 4.696,6.301C5.285,6.664 5.645,7.308 5.646,8L6.389,8L6.389,11.893C5.835,11.294 5.274,10.569 4.696,9.699C4.381,9.895 4.017,9.999 3.646,10C3.2,9.999 2.768,9.849 2.417,9.574L2.417,9.574C2.094,10.09 1.829,10.652 1.591,11.23C2.646,12.881 4.442,13.911 6.389,13.994L6.389,14.995C4.354,14.918 2.445,13.955 1.173,12.353C1.172,12.356 1.172,12.359 1.171,12.361C1.065,12.229 0.964,12.093 0.868,11.953C0.072,10.789 -0.354,9.411 -0.354,8C-0.354,4.246 2.666,1.141 6.389,1.005ZM11.322,1.06L11.745,1.115L12.443,1.279C12.666,1.344 12.887,1.421 13.103,1.508C13.103,1.508 13.104,1.508 13.105,1.508C15.751,2.57 17.496,5.148 17.497,8C17.496,8.184 17.488,8.369 17.472,8.553C17.462,8.657 17.45,8.761 17.435,8.865C17.42,8.999 17.401,9.133 17.378,9.266L17.224,9.928L16.997,10.59C16.954,10.694 16.907,10.798 16.859,10.9C16.81,11.013 16.757,11.124 16.702,11.234C16.657,11.319 16.609,11.402 16.56,11.484C16.491,11.607 16.418,11.727 16.341,11.846C16.296,11.912 16.25,11.977 16.202,12.041C16.114,12.168 16.022,12.293 15.925,12.414C15.879,12.468 15.832,12.522 15.784,12.574C15.679,12.698 15.569,12.819 15.454,12.936C15.401,12.988 15.346,13.039 15.29,13.09C15.18,13.196 15.066,13.299 14.949,13.398C14.881,13.452 14.813,13.504 14.743,13.555C14.623,13.649 14.5,13.738 14.374,13.824L13.743,14.199C13.742,14.199 13.741,14.198 13.74,14.197C12.984,14.594 12.164,14.848 11.322,14.95L11.322,13.94C11.703,13.886 12.079,13.795 12.445,13.668C12.068,13.463 11.695,13.213 11.322,12.912L11.322,8L16.497,8C16.494,5.448 14.862,3.164 12.448,2.334L12.448,2.334C12.071,2.539 11.696,2.789 11.322,3.091L11.322,1.06ZM1.695,8.431C1.69,8.412 1.687,8.394 1.683,8.375C1.685,8.388 1.688,8.402 1.691,8.415L1.698,8.445L1.695,8.431ZM1.666,8.263L1.669,8.285L1.666,8.263ZM1.769,4.514C1.915,5.165 2.126,5.797 2.452,6.399C1.946,6.775 1.647,7.369 1.646,8L0.646,8C0.647,6.75 1.04,5.53 1.769,4.514L1.769,4.514ZM2.981,6.117L3.015,6.105L2.977,6.118C2.971,6.12 2.965,6.123 2.958,6.125L2.981,6.117ZM3.449,6.012L3.418,6.015L3.396,6.018C3.388,6.019 3.379,6.02 3.371,6.021C3.362,6.022 3.352,6.023 3.343,6.024L3.371,6.021C3.384,6.019 3.398,6.017 3.411,6.016L3.441,6.013L3.449,6.012ZM3.639,6L3.646,6C3.643,6 3.641,6 3.639,6C3.623,6 3.607,6.001 3.591,6.001L3.557,6.003L3.536,6.004L3.562,6.002C3.588,6.001 3.613,6 3.639,6ZM1.663,8.241C1.66,8.216 1.658,8.191 1.655,8.166C1.657,8.186 1.659,8.206 1.661,8.226C1.663,8.236 1.664,8.245 1.665,8.255L1.663,8.241Z" style="fill:rgb(141,165,243);fill-opacity:0.99;fill-rule:nonzero;"/>
    </g>
    <g transform="matrix(2.40538,-6.96994e-17,-1.42723e-16,1.29086,-12.7549,-2.51127)">
        <rect x="7.709" y="0.361" width="0.622" height="15.077" style="fill:rgb(141,165,243);"/>
    </g>
    <g transform="matrix(2.419,-7.02651e-17,-1.43532e-16,1.30134,-9.43099,-2.63878)">
        <rect x="7.709" y="0.361" width="0.622" height="15.077" style="fill:rgb(141,165,243);"/>
    </g>
</svg>
